<svg xmlns="http://www.w3.org/2000/svg" xmlns:xlink="http://www.w3.org/1999/xlink" width="50" zoomAndPan="magnify" viewBox="0 0 37.5 37.499999" height="50" preserveAspectRatio="xMidYMid meet" version="1.0"><defs><clipPath id="9c4a17de56"><path d="M 0 0 L 37.007812 0 L 37.007812 37.007812 L 0 37.007812 Z M 0 0 " clip-rule="nonzero"/></clipPath><clipPath id="4007702e32"><path d="M 3.75 15 L 7 15 L 7 17 L 3.75 17 Z M 3.75 15 " clip-rule="nonzero"/></clipPath><clipPath id="14229ba2d2"><path d="M 17 1.40625 L 19 1.40625 L 19 5 L 17 5 Z M 17 1.40625 " clip-rule="nonzero"/></clipPath><clipPath id="e1fdf0debf"><path d="M 8 5 L 29 5 L 29 35.90625 L 8 35.90625 Z M 8 5 " clip-rule="nonzero"/></clipPath></defs><g clip-path="url(#9c4a17de56)"><path fill="#ffffff" d="M 0 0 L 37.5 0 L 37.5 45 L 0 45 Z M 0 0 " fill-opacity="1" fill-rule="nonzero"/><path fill="#ffffff" d="M 0 0 L 37.5 0 L 37.5 37.5 L 0 37.5 Z M 0 0 " fill-opacity="1" fill-rule="nonzero"/><path fill="#004aad" d="M 0 0 L 37.5 0 L 37.5 37.5 L 0 37.5 Z M 0 0 " fill-opacity="1" fill-rule="nonzero"/></g><path fill="#ffffff" d="M 11.316406 17.089844 C 11.316406 17.953125 11.808594 18.734375 12.574219 19.15625 C 12.4375 19.683594 12.347656 20.578125 12.925781 21.453125 C 13.441406 22.242188 14.183594 22.609375 14.746094 22.71875 C 14.8125 23.097656 15 23.429688 15.050781 23.5 C 15.308594 23.839844 15.707031 24.085938 16.144531 24.171875 C 16.257812 24.195312 16.382812 24.207031 16.511719 24.207031 C 16.972656 24.207031 17.496094 24.054688 17.816406 23.710938 C 18.207031 23.289062 18.164062 22.703125 18.132812 22.273438 C 18.125 22.160156 18.113281 22.054688 18.117188 21.957031 C 18.121094 21.652344 18.117188 21.347656 18.113281 21.042969 C 18.113281 20.847656 18.109375 20.652344 18.109375 20.457031 L 18.109375 14.464844 C 18.109375 14.203125 17.894531 14 17.632812 14 C 17.367188 14 17.152344 14.230469 17.152344 14.492188 L 17.152344 20.457031 C 17.152344 20.65625 17.152344 20.855469 17.15625 21.050781 C 17.160156 21.351562 17.160156 21.648438 17.15625 21.945312 C 17.15625 22.066406 17.164062 22.203125 17.175781 22.34375 C 17.195312 22.609375 17.222656 22.945312 17.113281 23.058594 C 16.980469 23.203125 16.601562 23.289062 16.332031 23.234375 C 16.128906 23.191406 15.929688 23.074219 15.828125 22.941406 C 15.75 22.808594 15.660156 22.519531 15.6875 22.433594 C 15.726562 22.328125 15.726562 22.214844 15.691406 22.113281 C 15.734375 21.90625 15.800781 21.703125 15.90625 21.519531 C 16.023438 21.316406 16.171875 21.132812 16.355469 20.976562 C 16.464844 20.878906 16.476562 20.707031 16.378906 20.597656 C 16.28125 20.484375 16.113281 20.472656 16 20.570312 C 15.90625 20.652344 15.820312 20.746094 15.738281 20.839844 C 15.710938 20.742188 15.707031 20.652344 15.710938 20.59375 C 15.722656 20.445312 15.613281 20.316406 15.464844 20.308594 C 15.324219 20.296875 15.1875 20.40625 15.175781 20.554688 C 15.164062 20.703125 15.183594 20.855469 15.226562 21 C 15.261719 21.125 15.320312 21.238281 15.394531 21.34375 C 15.320312 21.488281 15.257812 21.636719 15.210938 21.792969 C 15.191406 21.792969 15.167969 21.792969 15.144531 21.796875 C 15.027344 21.8125 14.238281 21.710938 13.726562 20.929688 C 13.203125 20.132812 13.527344 19.277344 13.589844 19.132812 C 13.59375 19.132812 13.597656 19.136719 13.605469 19.136719 C 13.664062 19.152344 13.722656 19.164062 13.78125 19.171875 C 13.796875 19.175781 13.8125 19.175781 13.828125 19.175781 C 13.957031 19.175781 14.070312 19.085938 14.089844 18.957031 C 14.117188 18.808594 14.019531 18.671875 13.875 18.644531 C 13.828125 18.636719 13.78125 18.628906 13.730469 18.617188 C 13.652344 18.597656 13.574219 18.574219 13.496094 18.542969 C 13.445312 18.496094 13.386719 18.460938 13.320312 18.4375 C 12.695312 18.234375 12.273438 17.691406 12.273438 17.085938 C 12.269531 16.457031 12.667969 15.882812 13.242188 15.691406 C 13.285156 15.679688 13.324219 15.65625 13.359375 15.632812 C 13.410156 15.667969 13.453125 15.710938 13.503906 15.746094 C 13.8125 15.957031 14.128906 16.097656 14.433594 16.191406 C 14.433594 16.199219 14.433594 16.203125 14.433594 16.207031 C 14.472656 16.433594 14.515625 16.714844 14.765625 17.046875 C 14.816406 17.113281 14.898438 17.152344 14.980469 17.152344 C 15.035156 17.152344 15.09375 17.132812 15.140625 17.097656 C 15.257812 17.007812 15.28125 16.839844 15.191406 16.722656 C 15.082031 16.574219 15.035156 16.449219 15.003906 16.324219 C 15.179688 16.351562 15.34375 16.363281 15.488281 16.367188 C 15.492188 16.367188 15.492188 16.367188 15.496094 16.367188 C 15.640625 16.367188 15.757812 16.25 15.761719 16.105469 C 15.765625 15.957031 15.648438 15.835938 15.5 15.832031 C 15.066406 15.820312 14.417969 15.722656 13.804688 15.304688 C 13.714844 15.242188 13.628906 15.167969 13.546875 15.09375 C 13.523438 15.019531 13.484375 14.953125 13.429688 14.898438 C 12.996094 14.46875 12.710938 13.714844 13.003906 13.105469 C 13.238281 12.621094 13.800781 12.324219 14.410156 12.355469 C 14.492188 12.359375 14.570312 12.34375 14.644531 12.316406 C 14.855469 12.546875 15.222656 12.867188 15.550781 13 C 15.585938 13.015625 15.621094 13.019531 15.652344 13.019531 C 15.757812 13.019531 15.859375 12.957031 15.902344 12.851562 C 15.957031 12.714844 15.894531 12.558594 15.753906 12.503906 C 15.746094 12.5 15.734375 12.492188 15.726562 12.488281 C 15.863281 12.445312 15.941406 12.308594 15.90625 12.167969 C 15.871094 12.023438 15.726562 11.9375 15.582031 11.976562 C 15.453125 12.007812 15.332031 12.0625 15.21875 12.128906 C 15.136719 12.054688 15.0625 11.980469 15.007812 11.914062 C 15.035156 11.808594 15.035156 11.691406 14.996094 11.582031 C 14.964844 11.492188 14.9375 11.382812 14.921875 11.328125 C 14.921875 11.324219 14.914062 11.289062 14.914062 11.285156 C 14.839844 11.015625 14.828125 10.769531 15.011719 10.425781 C 15.085938 10.289062 15.191406 10.171875 15.3125 10.085938 C 15.785156 9.75 16.214844 9.886719 16.429688 9.996094 C 16.859375 10.222656 17.152344 10.699219 17.152344 11.183594 L 17.152344 12.847656 C 17.152344 13.113281 17.367188 13.324219 17.632812 13.324219 C 17.894531 13.324219 18.109375 13.113281 18.109375 12.847656 L 18.109375 11.183594 C 18.109375 10.335938 17.625 9.539062 16.871094 9.148438 C 16.179688 8.789062 15.410156 8.847656 14.757812 9.304688 C 14.519531 9.472656 14.3125 9.703125 14.171875 9.96875 C 13.914062 10.441406 13.84375 10.898438 13.957031 11.417969 C 13.160156 11.53125 12.476562 11.996094 12.140625 12.691406 C 11.785156 13.421875 11.882812 14.335938 12.351562 15.078125 C 11.71875 15.523438 11.3125 16.277344 11.316406 17.089844 Z M 11.316406 17.089844 " fill-opacity="1" fill-rule="nonzero"/><path fill="#ffffff" d="M 20.238281 24.207031 C 20.367188 24.207031 20.492188 24.195312 20.605469 24.171875 C 21.042969 24.085938 21.441406 23.839844 21.699219 23.5 C 21.753906 23.429688 21.9375 23.097656 22.003906 22.71875 C 22.566406 22.609375 23.308594 22.242188 23.824219 21.453125 C 24.402344 20.578125 24.316406 19.683594 24.175781 19.15625 C 24.941406 18.734375 25.433594 17.953125 25.4375 17.089844 C 25.4375 16.277344 25.03125 15.523438 24.398438 15.078125 C 24.867188 14.339844 24.964844 13.425781 24.609375 12.691406 C 24.277344 11.996094 23.589844 11.53125 22.792969 11.421875 C 22.90625 10.910156 22.839844 10.445312 22.582031 9.972656 C 22.4375 9.703125 22.234375 9.472656 21.992188 9.304688 C 21.34375 8.847656 20.574219 8.789062 19.882812 9.148438 C 19.128906 9.539062 18.640625 10.339844 18.640625 11.183594 L 18.640625 17.910156 C 18.640625 18.171875 18.855469 18.386719 19.121094 18.386719 C 19.382812 18.386719 19.597656 18.171875 19.597656 17.910156 L 19.597656 11.183594 C 19.597656 10.699219 19.890625 10.222656 20.324219 9.996094 C 20.535156 9.886719 20.964844 9.75 21.441406 10.085938 C 21.558594 10.171875 21.664062 10.289062 21.738281 10.425781 C 21.921875 10.769531 21.914062 11.015625 21.839844 11.285156 C 21.835938 11.289062 21.828125 11.324219 21.828125 11.328125 C 21.8125 11.382812 21.785156 11.492188 21.753906 11.585938 C 21.722656 11.671875 21.71875 11.761719 21.730469 11.847656 C 21.675781 11.910156 21.609375 11.976562 21.53125 12.046875 C 21.421875 11.980469 21.304688 11.925781 21.179688 11.894531 C 21.039062 11.855469 20.890625 11.941406 20.851562 12.085938 C 20.816406 12.222656 20.894531 12.355469 21.023438 12.402344 C 21.015625 12.40625 21.003906 12.414062 20.996094 12.417969 C 20.859375 12.476562 20.792969 12.632812 20.847656 12.769531 C 20.890625 12.875 20.992188 12.9375 21.097656 12.9375 C 21.132812 12.9375 21.164062 12.929688 21.199219 12.917969 C 21.5 12.792969 21.832031 12.519531 22.050781 12.292969 C 22.136719 12.335938 22.234375 12.359375 22.339844 12.355469 C 22.953125 12.324219 23.511719 12.621094 23.746094 13.105469 C 24.039062 13.714844 23.757812 14.46875 23.324219 14.898438 C 23.265625 14.953125 23.226562 15.019531 23.203125 15.09375 C 23.121094 15.167969 23.035156 15.242188 22.945312 15.304688 C 22.332031 15.722656 21.683594 15.820312 21.25 15.832031 C 21.101562 15.835938 20.984375 15.957031 20.988281 16.105469 C 20.992188 16.25 21.109375 16.367188 21.257812 16.367188 C 21.257812 16.367188 21.261719 16.367188 21.261719 16.367188 C 21.40625 16.363281 21.570312 16.351562 21.746094 16.324219 C 21.714844 16.449219 21.667969 16.574219 21.558594 16.722656 C 21.46875 16.839844 21.492188 17.007812 21.609375 17.097656 C 21.660156 17.132812 21.714844 17.152344 21.769531 17.152344 C 21.851562 17.152344 21.933594 17.113281 21.984375 17.046875 C 22.234375 16.714844 22.28125 16.433594 22.316406 16.207031 C 22.316406 16.203125 22.316406 16.199219 22.320312 16.191406 C 22.621094 16.097656 22.9375 15.957031 23.246094 15.746094 C 23.296875 15.710938 23.339844 15.667969 23.390625 15.632812 C 23.425781 15.65625 23.464844 15.679688 23.507812 15.691406 C 24.082031 15.882812 24.480469 16.457031 24.476562 17.085938 C 24.476562 17.691406 24.054688 18.234375 23.429688 18.4375 C 23.363281 18.460938 23.304688 18.496094 23.257812 18.542969 C 23.179688 18.570312 23.101562 18.597656 23.019531 18.617188 C 22.96875 18.628906 22.921875 18.636719 22.878906 18.644531 C 22.730469 18.671875 22.632812 18.808594 22.660156 18.957031 C 22.683594 19.085938 22.796875 19.175781 22.921875 19.175781 C 22.9375 19.175781 22.953125 19.175781 22.96875 19.171875 C 23.027344 19.164062 23.085938 19.152344 23.144531 19.136719 C 23.152344 19.136719 23.15625 19.132812 23.160156 19.132812 C 23.226562 19.28125 23.546875 20.136719 23.023438 20.929688 C 22.511719 21.710938 21.734375 21.816406 21.621094 21.800781 C 21.578125 21.792969 21.539062 21.789062 21.5 21.792969 C 21.46875 21.695312 21.433594 21.597656 21.390625 21.503906 C 21.46875 21.402344 21.539062 21.292969 21.582031 21.171875 C 21.632812 21.03125 21.660156 20.882812 21.65625 20.730469 C 21.65625 20.582031 21.535156 20.464844 21.386719 20.464844 C 21.386719 20.464844 21.386719 20.464844 21.382812 20.464844 C 21.238281 20.46875 21.117188 20.589844 21.121094 20.738281 C 21.121094 20.820312 21.105469 20.902344 21.078125 20.980469 C 21.003906 20.882812 20.921875 20.785156 20.832031 20.695312 C 20.726562 20.59375 20.558594 20.59375 20.453125 20.699219 C 20.347656 20.804688 20.351562 20.976562 20.457031 21.078125 C 20.625 21.246094 20.765625 21.4375 20.871094 21.648438 C 20.960938 21.835938 21.015625 22.035156 21.046875 22.242188 C 21.039062 22.308594 21.042969 22.371094 21.0625 22.433594 C 21.089844 22.519531 21 22.808594 20.933594 22.921875 C 20.820312 23.074219 20.621094 23.191406 20.417969 23.234375 C 20.148438 23.285156 19.769531 23.203125 19.636719 23.058594 C 19.53125 22.945312 19.554688 22.609375 19.574219 22.34375 C 19.585938 22.203125 19.59375 22.066406 19.59375 21.945312 C 19.589844 21.652344 19.59375 21.183594 19.59375 20.894531 C 19.597656 20.628906 19.386719 20.410156 19.121094 20.410156 C 18.847656 20.421875 18.640625 20.617188 18.636719 20.882812 C 18.632812 21.179688 18.628906 21.660156 18.632812 21.957031 C 18.636719 22.054688 18.628906 22.160156 18.617188 22.273438 C 18.585938 22.703125 18.542969 23.289062 18.9375 23.710938 C 19.253906 24.054688 19.777344 24.207031 20.238281 24.207031 Z M 20.238281 24.207031 " fill-opacity="1" fill-rule="nonzero"/><path fill="#ffffff" d="M 19.121094 19.925781 C 19.382812 19.925781 19.597656 19.710938 19.597656 19.445312 L 19.597656 19.347656 C 19.597656 19.085938 19.382812 18.871094 19.121094 18.871094 C 18.855469 18.871094 18.640625 19.085938 18.640625 19.347656 L 18.640625 19.445312 C 18.640625 19.710938 18.855469 19.925781 19.121094 19.925781 Z M 19.121094 19.925781 " fill-opacity="1" fill-rule="nonzero"/><path fill="#ffffff" d="M 32.523438 16.507812 C 32.785156 16.507812 33 16.292969 33 16.03125 C 33 15.765625 32.785156 15.550781 32.523438 15.550781 L 30.417969 15.550781 C 30.152344 15.550781 29.9375 15.765625 29.9375 16.03125 C 29.9375 16.292969 30.152344 16.507812 30.417969 16.507812 Z M 32.523438 16.507812 " fill-opacity="1" fill-rule="nonzero"/><g clip-path="url(#4007702e32)"><path fill="#ffffff" d="M 6.332031 15.550781 L 4.230469 15.550781 C 3.964844 15.550781 3.75 15.765625 3.75 16.03125 C 3.75 16.292969 3.964844 16.507812 4.230469 16.507812 L 6.332031 16.507812 C 6.597656 16.507812 6.8125 16.292969 6.8125 16.03125 C 6.8125 15.765625 6.597656 15.550781 6.332031 15.550781 Z M 6.332031 15.550781 " fill-opacity="1" fill-rule="nonzero"/></g><path fill="#ffffff" d="M 26.550781 24.203125 C 26.363281 24.386719 26.363281 24.691406 26.550781 24.878906 L 28.039062 26.363281 C 28.132812 26.457031 28.253906 26.503906 28.378906 26.503906 C 28.5 26.503906 28.625 26.457031 28.71875 26.363281 C 28.90625 26.179688 28.90625 25.875 28.71875 25.6875 L 27.230469 24.203125 C 27.042969 24.015625 26.738281 24.015625 26.550781 24.203125 Z M 26.550781 24.203125 " fill-opacity="1" fill-rule="nonzero"/><path fill="#ffffff" d="M 9.519531 7.859375 C 9.613281 7.953125 9.738281 8 9.859375 8 C 9.984375 8 10.105469 7.953125 10.199219 7.859375 C 10.386719 7.671875 10.386719 7.367188 10.199219 7.179688 L 8.710938 5.695312 C 8.523438 5.507812 8.222656 5.507812 8.035156 5.695312 C 7.847656 5.882812 7.847656 6.183594 8.035156 6.371094 Z M 9.519531 7.859375 " fill-opacity="1" fill-rule="nonzero"/><g clip-path="url(#14229ba2d2)"><path fill="#ffffff" d="M 17.894531 1.890625 L 17.894531 3.996094 C 17.894531 4.257812 18.109375 4.472656 18.375 4.472656 C 18.640625 4.472656 18.855469 4.257812 18.855469 3.996094 L 18.855469 1.890625 C 18.855469 1.628906 18.640625 1.414062 18.375 1.414062 C 18.109375 1.414062 17.894531 1.628906 17.894531 1.890625 Z M 17.894531 1.890625 " fill-opacity="1" fill-rule="nonzero"/></g><path fill="#ffffff" d="M 8.035156 26.363281 C 8.128906 26.457031 8.25 26.503906 8.371094 26.503906 C 8.496094 26.503906 8.617188 26.457031 8.710938 26.363281 L 10.199219 24.878906 C 10.386719 24.691406 10.386719 24.386719 10.199219 24.203125 C 10.011719 24.015625 9.707031 24.015625 9.519531 24.203125 L 8.035156 25.6875 C 7.847656 25.875 7.847656 26.179688 8.035156 26.363281 Z M 8.035156 26.363281 " fill-opacity="1" fill-rule="nonzero"/><path fill="#ffffff" d="M 28.71875 5.695312 C 28.53125 5.507812 28.226562 5.507812 28.039062 5.695312 L 26.550781 7.179688 C 26.363281 7.367188 26.363281 7.671875 26.550781 7.859375 C 26.644531 7.953125 26.769531 8 26.890625 8 C 27.015625 8 27.136719 7.953125 27.230469 7.859375 L 28.71875 6.371094 C 28.90625 6.183594 28.90625 5.882812 28.71875 5.695312 Z M 28.71875 5.695312 " fill-opacity="1" fill-rule="nonzero"/><g clip-path="url(#e1fdf0debf)"><path fill="#ffffff" d="M 8.300781 14.957031 C 7.925781 18.484375 9.371094 21.886719 12.164062 24.054688 C 13.148438 24.816406 13.714844 25.972656 13.714844 27.21875 L 13.714844 27.28125 C 13.714844 27.960938 13.957031 28.601562 14.402344 29.109375 L 14.402344 30.886719 C 14.402344 32.378906 15.394531 33.648438 16.753906 34.066406 L 16.753906 34.273438 C 16.753906 35.171875 17.480469 35.898438 18.378906 35.898438 C 19.273438 35.898438 20.003906 35.171875 20.003906 34.273438 L 20.003906 34.0625 C 21.359375 33.644531 22.347656 32.378906 22.347656 30.886719 L 22.347656 29.109375 C 22.792969 28.601562 23.035156 27.960938 23.035156 27.28125 L 23.035156 27.21875 C 23.035156 25.972656 23.605469 24.816406 24.601562 24.042969 C 27.085938 22.109375 28.507812 19.199219 28.507812 16.0625 C 28.507812 10.480469 23.964844 5.9375 18.375 5.9375 C 17.992188 5.9375 17.601562 5.957031 17.21875 6 C 12.546875 6.519531 8.796875 10.285156 8.300781 14.957031 Z M 17.347656 7.140625 C 17.6875 7.105469 18.035156 7.085938 18.375 7.085938 C 23.328125 7.085938 27.359375 11.113281 27.359375 16.0625 C 27.359375 18.84375 26.097656 21.421875 23.894531 23.132812 C 22.617188 24.128906 21.886719 25.617188 21.886719 27.21875 L 21.886719 27.28125 C 21.886719 27.703125 21.71875 28.097656 21.425781 28.402344 L 17.515625 28.402344 C 17.25 28.402344 17.035156 28.617188 17.035156 28.882812 C 17.035156 29.148438 17.25 29.363281 17.515625 29.363281 L 21.199219 29.363281 L 21.199219 30.886719 C 21.199219 32.085938 20.222656 33.0625 19.019531 33.0625 L 17.730469 33.0625 C 16.53125 33.0625 15.554688 32.085938 15.554688 30.886719 L 15.554688 29.363281 L 16.082031 29.363281 C 16.347656 29.363281 16.5625 29.148438 16.5625 28.882812 C 16.5625 28.617188 16.347656 28.402344 16.082031 28.402344 L 15.324219 28.402344 C 15.03125 28.097656 14.863281 27.703125 14.863281 27.28125 L 14.863281 27.21875 C 14.863281 25.613281 14.136719 24.128906 12.871094 23.144531 C 10.390625 21.222656 9.113281 18.207031 9.445312 15.078125 C 9.886719 10.9375 13.207031 7.601562 17.347656 7.140625 Z M 17.347656 7.140625 " fill-opacity="1" fill-rule="nonzero"/></g></svg>