<svg xmlns="http://www.w3.org/2000/svg" xmlns:xlink="http://www.w3.org/1999/xlink" width="500" zoomAndPan="magnify" viewBox="0 0 375 374.999991" height="500" preserveAspectRatio="xMidYMid meet" version="1.0"><defs><g/><clipPath id="id1"><path d="M 76.523438 218.851562 L 87.183594 218.851562 L 87.183594 221.230469 L 76.523438 221.230469 Z M 76.523438 218.851562 " clip-rule="nonzero"/></clipPath><clipPath id="id2"><path d="M 81 153.730469 L 83 153.730469 L 83 160 L 81 160 Z M 81 153.730469 " clip-rule="nonzero"/></clipPath><clipPath id="id3"><path d="M 51.105469 183 L 57 183 L 57 186 L 51.105469 186 Z M 51.105469 183 " clip-rule="nonzero"/></clipPath><clipPath id="id4"><path d="M 107 183 L 107.355469 183 L 107.355469 186 L 107 186 Z M 107 183 " clip-rule="nonzero"/></clipPath></defs><g fill="#ffffff" fill-opacity="1"><g transform="translate(108.265882, 186.625008)"><g><path d="M 11.828125 -6.828125 L 11.828125 -0.765625 C 11.179688 -0.472656 10.457031 -0.242188 9.65625 -0.078125 C 8.863281 0.078125 8.046875 0.15625 7.203125 0.15625 C 5.890625 0.15625 4.75 -0.09375 3.78125 -0.59375 C 2.8125 -1.09375 2.066406 -1.804688 1.546875 -2.734375 C 1.023438 -3.671875 0.765625 -4.78125 0.765625 -6.0625 C 0.765625 -7.3125 1.023438 -8.40625 1.546875 -9.34375 C 2.066406 -10.28125 2.800781 -11 3.75 -11.5 C 4.707031 -12 5.820312 -12.25 7.09375 -12.25 C 7.957031 -12.25 8.78125 -12.132812 9.5625 -11.90625 C 10.34375 -11.6875 10.972656 -11.378906 11.453125 -10.984375 L 10.453125 -8.71875 C 9.898438 -9.082031 9.363281 -9.347656 8.84375 -9.515625 C 8.332031 -9.679688 7.78125 -9.765625 7.1875 -9.765625 C 6.113281 -9.765625 5.3125 -9.457031 4.78125 -8.84375 C 4.257812 -8.238281 4 -7.3125 4 -6.0625 C 4 -4.769531 4.269531 -3.8125 4.8125 -3.1875 C 5.363281 -2.570312 6.210938 -2.265625 7.359375 -2.265625 C 7.890625 -2.265625 8.421875 -2.320312 8.953125 -2.4375 L 8.953125 -4.671875 L 6.84375 -4.671875 L 6.84375 -6.828125 Z M 11.828125 -6.828125 "/></g></g></g><g fill="#ffffff" fill-opacity="1"><g transform="translate(122.48901, 186.625008)"><g><path d="M 6.40625 0.15625 C 4.632812 0.15625 3.296875 -0.285156 2.390625 -1.171875 C 1.484375 -2.066406 1.03125 -3.375 1.03125 -5.09375 L 1.03125 -12.109375 L 4.140625 -12.109375 L 4.140625 -4.984375 C 4.140625 -4.109375 4.335938 -3.4375 4.734375 -2.96875 C 5.128906 -2.507812 5.6875 -2.28125 6.40625 -2.28125 C 7.125 -2.28125 7.675781 -2.515625 8.0625 -2.984375 C 8.445312 -3.453125 8.640625 -4.117188 8.640625 -4.984375 L 8.640625 -12.109375 L 11.78125 -12.109375 L 11.78125 -5.09375 C 11.78125 -3.394531 11.316406 -2.09375 10.390625 -1.1875 C 9.472656 -0.289062 8.144531 0.15625 6.40625 0.15625 Z M 6.40625 0.15625 "/></g></g></g><g fill="#ffffff" fill-opacity="1"><g transform="translate(136.729133, 186.625008)"><g><path d="M 1.09375 0 L 1.09375 -12.109375 L 4.28125 -12.109375 L 4.28125 0 Z M 1.09375 0 "/></g></g></g><g fill="#ffffff" fill-opacity="1"><g transform="translate(143.560683, 186.625008)"><g><path d="M 1.09375 0 L 1.09375 -12.109375 L 4.28125 -12.109375 L 4.28125 -2.578125 L 9.40625 -2.578125 L 9.40625 0 Z M 1.09375 0 "/></g></g></g><g fill="#ffffff" fill-opacity="1"><g transform="translate(154.861162, 186.625008)"><g><path d="M 9.109375 -12.109375 L 12.234375 -12.109375 L 12.234375 0 L 9.109375 0 L 9.109375 -4.890625 L 4.21875 -4.890625 L 4.21875 0 L 1.09375 0 L 1.09375 -12.109375 L 4.21875 -12.109375 L 4.21875 -7.390625 L 9.109375 -7.390625 Z M 9.109375 -12.109375 "/></g></g></g><g fill="#ffffff" fill-opacity="1"><g transform="translate(169.64504, 186.625008)"><g><path d="M 1.09375 0 L 1.09375 -12.109375 L 9.71875 -12.109375 L 9.71875 -9.65625 L 4.203125 -9.65625 L 4.203125 -7.375 L 9.359375 -7.375 L 9.359375 -4.9375 L 4.203125 -4.9375 L 4.203125 -2.453125 L 9.71875 -2.453125 L 9.71875 0 Z M 1.09375 0 "/></g></g></g><g fill="#ffffff" fill-opacity="1"><g transform="translate(181.370324, 186.625008)"><g><path d="M 11.609375 0 L 8.234375 0 L 6.65625 -4.03125 C 6.476562 -4.476562 6.054688 -4.703125 5.390625 -4.703125 L 4.234375 -4.703125 L 4.234375 0 L 1.09375 0 L 1.09375 -12.109375 L 6.71875 -12.109375 C 8.175781 -12.109375 9.273438 -11.789062 10.015625 -11.15625 C 10.753906 -10.53125 11.125 -9.632812 11.125 -8.46875 C 11.125 -7.644531 10.90625 -6.9375 10.46875 -6.34375 C 10.03125 -5.75 9.414062 -5.328125 8.625 -5.078125 C 8.957031 -5.015625 9.257812 -4.859375 9.53125 -4.609375 C 9.800781 -4.359375 10.019531 -4.023438 10.1875 -3.609375 Z M 6.203125 -7.09375 C 6.878906 -7.09375 7.367188 -7.195312 7.671875 -7.40625 C 7.984375 -7.613281 8.140625 -7.9375 8.140625 -8.375 C 8.140625 -8.84375 7.988281 -9.175781 7.6875 -9.375 C 7.382812 -9.582031 6.890625 -9.6875 6.203125 -9.6875 L 4.203125 -9.6875 L 4.203125 -7.09375 Z M 6.203125 -7.09375 "/></g></g></g><g fill="#ffffff" fill-opacity="1"><g transform="translate(194.964748, 186.625008)"><g><path d="M 10.859375 -12.109375 L 13.34375 -12.109375 L 13.34375 0 L 10.5625 0 L 10.546875 -5.546875 L 8.25 0 L 6.21875 0 L 3.90625 -5.46875 L 3.90625 0 L 1.140625 0 L 1.140625 -12.109375 L 3.640625 -12.109375 L 7.265625 -3.84375 Z M 10.859375 -12.109375 "/></g></g></g><g fill="#ffffff" fill-opacity="1"><g transform="translate(210.904089, 186.625008)"><g><path d="M 1.09375 0 L 1.09375 -12.109375 L 9.71875 -12.109375 L 9.71875 -9.65625 L 4.203125 -9.65625 L 4.203125 -7.375 L 9.359375 -7.375 L 9.359375 -4.9375 L 4.203125 -4.9375 L 4.203125 -2.453125 L 9.71875 -2.453125 L 9.71875 0 Z M 1.09375 0 "/></g></g></g><g fill="#ffffff" fill-opacity="1"><g transform="translate(222.629373, 186.625008)"><g/></g></g><g fill="#ffffff" fill-opacity="1"><g transform="translate(229.019124, 186.625008)"><g><path d="M 10.859375 -12.109375 L 13.34375 -12.109375 L 13.34375 0 L 10.5625 0 L 10.546875 -5.546875 L 8.25 0 L 6.21875 0 L 3.90625 -5.46875 L 3.90625 0 L 1.140625 0 L 1.140625 -12.109375 L 3.640625 -12.109375 L 7.265625 -3.84375 Z M 10.859375 -12.109375 "/></g></g></g><g fill="#ffffff" fill-opacity="1"><g transform="translate(244.958466, 186.625008)"><g><path d="M 10.3125 0 L 9.25 -2.5 L 3.875 -2.5 L 2.8125 0 L -0.390625 0 L 5.265625 -12.109375 L 7.78125 -12.109375 L 13.46875 0 Z M 4.90625 -4.890625 L 8.21875 -4.890625 L 6.5625 -8.71875 Z M 4.90625 -4.890625 "/></g></g></g><g fill="#ffffff" fill-opacity="1"><g transform="translate(259.487461, 186.625008)"><g><path d="M 11.609375 0 L 8.234375 0 L 6.65625 -4.03125 C 6.476562 -4.476562 6.054688 -4.703125 5.390625 -4.703125 L 4.234375 -4.703125 L 4.234375 0 L 1.09375 0 L 1.09375 -12.109375 L 6.71875 -12.109375 C 8.175781 -12.109375 9.273438 -11.789062 10.015625 -11.15625 C 10.753906 -10.53125 11.125 -9.632812 11.125 -8.46875 C 11.125 -7.644531 10.90625 -6.9375 10.46875 -6.34375 C 10.03125 -5.75 9.414062 -5.328125 8.625 -5.078125 C 8.957031 -5.015625 9.257812 -4.859375 9.53125 -4.609375 C 9.800781 -4.359375 10.019531 -4.023438 10.1875 -3.609375 Z M 6.203125 -7.09375 C 6.878906 -7.09375 7.367188 -7.195312 7.671875 -7.40625 C 7.984375 -7.613281 8.140625 -7.9375 8.140625 -8.375 C 8.140625 -8.84375 7.988281 -9.175781 7.6875 -9.375 C 7.382812 -9.582031 6.890625 -9.6875 6.203125 -9.6875 L 4.203125 -9.6875 L 4.203125 -7.09375 Z M 6.203125 -7.09375 "/></g></g></g><g fill="#ffffff" fill-opacity="1"><g transform="translate(273.081885, 186.625008)"><g><path d="M 3.8125 0 L 3.8125 -9.515625 L 0.203125 -9.515625 L 0.203125 -12.109375 L 10.640625 -12.109375 L 10.640625 -9.515625 L 7.03125 -9.515625 L 7.03125 0 Z M 3.8125 0 "/></g></g></g><g fill="#ffffff" fill-opacity="1"><g transform="translate(285.3849, 186.625008)"><g><path d="M 1.09375 0 L 1.09375 -12.109375 L 4.28125 -12.109375 L 4.28125 0 Z M 1.09375 0 "/></g></g></g><g fill="#ffffff" fill-opacity="1"><g transform="translate(292.216451, 186.625008)"><g><path d="M 8.90625 -12.109375 L 11.921875 -12.109375 L 11.921875 0 L 9.546875 0 L 4.0625 -6.875 L 4.0625 0 L 1.09375 0 L 1.09375 -12.109375 L 3.421875 -12.109375 L 8.90625 -5.265625 Z M 8.90625 -12.109375 "/></g></g></g><g fill="#ffffff" fill-opacity="1"><g transform="translate(306.694473, 186.625008)"><g><path d="M 5.46875 0.15625 C 4.5625 0.15625 3.664062 0.0351562 2.78125 -0.203125 C 1.90625 -0.441406 1.1875 -0.765625 0.625 -1.171875 L 1.625 -3.4375 C 2.21875 -3.0625 2.84375 -2.773438 3.5 -2.578125 C 4.164062 -2.378906 4.835938 -2.28125 5.515625 -2.28125 C 6.191406 -2.28125 6.707031 -2.375 7.0625 -2.5625 C 7.425781 -2.75 7.609375 -3.007812 7.609375 -3.34375 C 7.609375 -3.65625 7.441406 -3.910156 7.109375 -4.109375 C 6.785156 -4.304688 6.171875 -4.5 5.265625 -4.6875 C 4.117188 -4.914062 3.226562 -5.195312 2.59375 -5.53125 C 1.96875 -5.863281 1.523438 -6.253906 1.265625 -6.703125 C 1.015625 -7.160156 0.890625 -7.710938 0.890625 -8.359375 C 0.890625 -9.097656 1.097656 -9.765625 1.515625 -10.359375 C 1.929688 -10.953125 2.519531 -11.414062 3.28125 -11.75 C 4.039062 -12.082031 4.90625 -12.25 5.875 -12.25 C 6.75 -12.25 7.597656 -12.128906 8.421875 -11.890625 C 9.242188 -11.648438 9.890625 -11.332031 10.359375 -10.9375 L 9.359375 -8.671875 C 8.828125 -9.046875 8.265625 -9.332031 7.671875 -9.53125 C 7.085938 -9.726562 6.503906 -9.828125 5.921875 -9.828125 C 5.335938 -9.828125 4.867188 -9.710938 4.515625 -9.484375 C 4.171875 -9.265625 4 -8.972656 4 -8.609375 C 4 -8.398438 4.0625 -8.226562 4.1875 -8.09375 C 4.3125 -7.957031 4.539062 -7.820312 4.875 -7.6875 C 5.21875 -7.5625 5.726562 -7.425781 6.40625 -7.28125 C 7.507812 -7.039062 8.375 -6.753906 9 -6.421875 C 9.625 -6.085938 10.066406 -5.695312 10.328125 -5.25 C 10.597656 -4.800781 10.734375 -4.265625 10.734375 -3.640625 C 10.734375 -2.460938 10.269531 -1.535156 9.34375 -0.859375 C 8.425781 -0.179688 7.132812 0.15625 5.46875 0.15625 Z M 5.46875 0.15625 "/></g></g></g><g fill="#ffffff" fill-opacity="1"><g transform="translate(105.833998, 199.674961)"><g><path d="M 5.046875 -4.953125 L 1.375 -3.5 L 5.046875 -2.046875 L 5.046875 -1.4375 L 0.703125 -3.171875 L 0.703125 -3.828125 L 5.046875 -5.578125 Z M 5.046875 -4.953125 "/></g></g></g><g fill="#ffffff" fill-opacity="1"><g transform="translate(114.941803, 199.674961)"><g><path d="M 1.875 -6.359375 L 1.875 -3.609375 L 5.5 -3.609375 L 5.5 -2.96875 L 1.875 -2.96875 L 1.875 0 L 1.140625 0 L 1.140625 -7 L 5.9375 -7 L 5.9375 -6.359375 Z M 1.875 -6.359375 "/></g></g></g><g fill="#ffffff" fill-opacity="1"><g transform="translate(124.629376, 199.674961)"><g><path d="M 5.921875 0 L 4.3125 -2.25 C 4.132812 -2.226562 3.953125 -2.21875 3.765625 -2.21875 L 1.875 -2.21875 L 1.875 0 L 1.140625 0 L 1.140625 -7 L 3.765625 -7 C 4.648438 -7 5.347656 -6.785156 5.859375 -6.359375 C 6.367188 -5.929688 6.625 -5.34375 6.625 -4.59375 C 6.625 -4.050781 6.484375 -3.59375 6.203125 -3.21875 C 5.929688 -2.84375 5.535156 -2.570312 5.015625 -2.40625 L 6.734375 0 Z M 3.734375 -2.84375 C 4.429688 -2.84375 4.960938 -2.992188 5.328125 -3.296875 C 5.691406 -3.609375 5.875 -4.039062 5.875 -4.59375 C 5.875 -5.164062 5.691406 -5.601562 5.328125 -5.90625 C 4.960938 -6.207031 4.429688 -6.359375 3.734375 -6.359375 L 1.875 -6.359375 L 1.875 -2.84375 Z M 3.734375 -2.84375 "/></g></g></g><g fill="#ffffff" fill-opacity="1"><g transform="translate(135.216593, 199.674961)"><g><path d="M 4.203125 0.0625 C 3.503906 0.0625 2.875 -0.09375 2.3125 -0.40625 C 1.75 -0.71875 1.304688 -1.140625 0.984375 -1.671875 C 0.671875 -2.210938 0.515625 -2.820312 0.515625 -3.5 C 0.515625 -4.175781 0.671875 -4.78125 0.984375 -5.3125 C 1.304688 -5.851562 1.75 -6.28125 2.3125 -6.59375 C 2.875 -6.90625 3.503906 -7.0625 4.203125 -7.0625 C 4.890625 -7.0625 5.507812 -6.90625 6.0625 -6.59375 C 6.625 -6.289062 7.066406 -5.867188 7.390625 -5.328125 C 7.710938 -4.785156 7.875 -4.175781 7.875 -3.5 C 7.875 -2.820312 7.710938 -2.210938 7.390625 -1.671875 C 7.066406 -1.128906 6.625 -0.703125 6.0625 -0.390625 C 5.507812 -0.0859375 4.890625 0.0625 4.203125 0.0625 Z M 4.203125 -0.59375 C 4.753906 -0.59375 5.253906 -0.71875 5.703125 -0.96875 C 6.148438 -1.21875 6.5 -1.566406 6.75 -2.015625 C 7 -2.460938 7.125 -2.957031 7.125 -3.5 C 7.125 -4.039062 7 -4.535156 6.75 -4.984375 C 6.5 -5.429688 6.148438 -5.78125 5.703125 -6.03125 C 5.253906 -6.28125 4.753906 -6.40625 4.203125 -6.40625 C 3.648438 -6.40625 3.144531 -6.28125 2.6875 -6.03125 C 2.238281 -5.78125 1.882812 -5.429688 1.625 -4.984375 C 1.375 -4.535156 1.25 -4.039062 1.25 -3.5 C 1.25 -2.957031 1.375 -2.460938 1.625 -2.015625 C 1.882812 -1.566406 2.238281 -1.21875 2.6875 -0.96875 C 3.144531 -0.71875 3.648438 -0.59375 4.203125 -0.59375 Z M 4.203125 -0.59375 "/></g></g></g><g fill="#ffffff" fill-opacity="1"><g transform="translate(146.963346, 199.674961)"><g><path d="M 6.984375 -7 L 6.984375 0 L 6.375 0 L 1.875 -5.6875 L 1.875 0 L 1.140625 0 L 1.140625 -7 L 1.75 -7 L 6.265625 -1.3125 L 6.265625 -7 Z M 6.984375 -7 "/></g></g></g><g fill="#ffffff" fill-opacity="1"><g transform="translate(158.450204, 199.674961)"><g><path d="M 2.5 -6.359375 L 0.046875 -6.359375 L 0.046875 -7 L 5.703125 -7 L 5.703125 -6.359375 L 3.234375 -6.359375 L 3.234375 0 L 2.5 0 Z M 2.5 -6.359375 "/></g></g></g><g fill="#ffffff" fill-opacity="1"><g transform="translate(167.548005, 199.674961)"><g><path d="M 0.59375 -3.015625 L 3.21875 -3.015625 L 3.21875 -2.40625 L 0.59375 -2.40625 Z M 0.59375 -3.015625 "/></g></g></g><g fill="#ffffff" fill-opacity="1"><g transform="translate(174.726563, 199.674961)"><g><path d="M 6.09375 -0.640625 L 6.09375 0 L 1.140625 0 L 1.140625 -7 L 5.9375 -7 L 5.9375 -6.359375 L 1.875 -6.359375 L 1.875 -3.875 L 5.5 -3.875 L 5.5 -3.234375 L 1.875 -3.234375 L 1.875 -0.640625 Z M 6.09375 -0.640625 "/></g></g></g><g fill="#ffffff" fill-opacity="1"><g transform="translate(184.773994, 199.674961)"><g><path d="M 6.984375 -7 L 6.984375 0 L 6.375 0 L 1.875 -5.6875 L 1.875 0 L 1.140625 0 L 1.140625 -7 L 1.75 -7 L 6.265625 -1.3125 L 6.265625 -7 Z M 6.984375 -7 "/></g></g></g><g fill="#ffffff" fill-opacity="1"><g transform="translate(196.260851, 199.674961)"><g><path d="M 1.140625 -7 L 3.984375 -7 C 4.722656 -7 5.375 -6.847656 5.9375 -6.546875 C 6.507812 -6.253906 6.953125 -5.84375 7.265625 -5.3125 C 7.578125 -4.78125 7.734375 -4.175781 7.734375 -3.5 C 7.734375 -2.820312 7.578125 -2.21875 7.265625 -1.6875 C 6.953125 -1.15625 6.507812 -0.738281 5.9375 -0.4375 C 5.375 -0.144531 4.722656 0 3.984375 0 L 1.140625 0 Z M 3.953125 -0.640625 C 4.566406 -0.640625 5.101562 -0.757812 5.5625 -1 C 6.019531 -1.25 6.375 -1.585938 6.625 -2.015625 C 6.882812 -2.441406 7.015625 -2.9375 7.015625 -3.5 C 7.015625 -4.0625 6.882812 -4.554688 6.625 -4.984375 C 6.375 -5.410156 6.019531 -5.742188 5.5625 -5.984375 C 5.101562 -6.234375 4.566406 -6.359375 3.953125 -6.359375 L 1.875 -6.359375 L 1.875 -0.640625 Z M 3.953125 -0.640625 "/></g></g></g><g fill="#ffffff" fill-opacity="1"><g transform="translate(207.877662, 199.674961)"><g/></g></g><g fill="#ffffff" fill-opacity="1"><g transform="translate(213.856696, 199.674961)"><g><path d="M 1.140625 -7 L 3.984375 -7 C 4.722656 -7 5.375 -6.847656 5.9375 -6.546875 C 6.507812 -6.253906 6.953125 -5.84375 7.265625 -5.3125 C 7.578125 -4.78125 7.734375 -4.175781 7.734375 -3.5 C 7.734375 -2.820312 7.578125 -2.21875 7.265625 -1.6875 C 6.953125 -1.15625 6.507812 -0.738281 5.9375 -0.4375 C 5.375 -0.144531 4.722656 0 3.984375 0 L 1.140625 0 Z M 3.953125 -0.640625 C 4.566406 -0.640625 5.101562 -0.757812 5.5625 -1 C 6.019531 -1.25 6.375 -1.585938 6.625 -2.015625 C 6.882812 -2.441406 7.015625 -2.9375 7.015625 -3.5 C 7.015625 -4.0625 6.882812 -4.554688 6.625 -4.984375 C 6.375 -5.410156 6.019531 -5.742188 5.5625 -5.984375 C 5.101562 -6.234375 4.566406 -6.359375 3.953125 -6.359375 L 1.875 -6.359375 L 1.875 -0.640625 Z M 3.953125 -0.640625 "/></g></g></g><g fill="#ffffff" fill-opacity="1"><g transform="translate(225.473502, 199.674961)"><g><path d="M 6.09375 -0.640625 L 6.09375 0 L 1.140625 0 L 1.140625 -7 L 5.9375 -7 L 5.9375 -6.359375 L 1.875 -6.359375 L 1.875 -3.875 L 5.5 -3.875 L 5.5 -3.234375 L 1.875 -3.234375 L 1.875 -0.640625 Z M 6.09375 -0.640625 "/></g></g></g><g fill="#ffffff" fill-opacity="1"><g transform="translate(235.520933, 199.674961)"><g><path d="M 6.953125 -7 L 3.859375 0 L 3.125 0 L 0.03125 -7 L 0.828125 -7 L 3.515625 -0.921875 L 6.203125 -7 Z M 6.953125 -7 "/></g></g></g><g fill="#ffffff" fill-opacity="1"><g transform="translate(245.858243, 199.674961)"><g><path d="M 6.09375 -0.640625 L 6.09375 0 L 1.140625 0 L 1.140625 -7 L 5.9375 -7 L 5.9375 -6.359375 L 1.875 -6.359375 L 1.875 -3.875 L 5.5 -3.875 L 5.5 -3.234375 L 1.875 -3.234375 L 1.875 -0.640625 Z M 6.09375 -0.640625 "/></g></g></g><g fill="#ffffff" fill-opacity="1"><g transform="translate(255.905674, 199.674961)"><g><path d="M 1.140625 -7 L 1.875 -7 L 1.875 -0.640625 L 5.796875 -0.640625 L 5.796875 0 L 1.140625 0 Z M 1.140625 -7 "/></g></g></g><g fill="#ffffff" fill-opacity="1"><g transform="translate(265.153415, 199.674961)"><g><path d="M 4.203125 0.0625 C 3.503906 0.0625 2.875 -0.09375 2.3125 -0.40625 C 1.75 -0.71875 1.304688 -1.140625 0.984375 -1.671875 C 0.671875 -2.210938 0.515625 -2.820312 0.515625 -3.5 C 0.515625 -4.175781 0.671875 -4.78125 0.984375 -5.3125 C 1.304688 -5.851562 1.75 -6.28125 2.3125 -6.59375 C 2.875 -6.90625 3.503906 -7.0625 4.203125 -7.0625 C 4.890625 -7.0625 5.507812 -6.90625 6.0625 -6.59375 C 6.625 -6.289062 7.066406 -5.867188 7.390625 -5.328125 C 7.710938 -4.785156 7.875 -4.175781 7.875 -3.5 C 7.875 -2.820312 7.710938 -2.210938 7.390625 -1.671875 C 7.066406 -1.128906 6.625 -0.703125 6.0625 -0.390625 C 5.507812 -0.0859375 4.890625 0.0625 4.203125 0.0625 Z M 4.203125 -0.59375 C 4.753906 -0.59375 5.253906 -0.71875 5.703125 -0.96875 C 6.148438 -1.21875 6.5 -1.566406 6.75 -2.015625 C 7 -2.460938 7.125 -2.957031 7.125 -3.5 C 7.125 -4.039062 7 -4.535156 6.75 -4.984375 C 6.5 -5.429688 6.148438 -5.78125 5.703125 -6.03125 C 5.253906 -6.28125 4.753906 -6.40625 4.203125 -6.40625 C 3.648438 -6.40625 3.144531 -6.28125 2.6875 -6.03125 C 2.238281 -5.78125 1.882812 -5.429688 1.625 -4.984375 C 1.375 -4.535156 1.25 -4.039062 1.25 -3.5 C 1.25 -2.957031 1.375 -2.460938 1.625 -2.015625 C 1.882812 -1.566406 2.238281 -1.21875 2.6875 -0.96875 C 3.144531 -0.71875 3.648438 -0.59375 4.203125 -0.59375 Z M 4.203125 -0.59375 "/></g></g></g><g fill="#ffffff" fill-opacity="1"><g transform="translate(276.900168, 199.674961)"><g><path d="M 3.765625 -7 C 4.648438 -7 5.347656 -6.785156 5.859375 -6.359375 C 6.367188 -5.929688 6.625 -5.34375 6.625 -4.59375 C 6.625 -3.851562 6.367188 -3.269531 5.859375 -2.84375 C 5.347656 -2.414062 4.648438 -2.203125 3.765625 -2.203125 L 1.875 -2.203125 L 1.875 0 L 1.140625 0 L 1.140625 -7 Z M 3.734375 -2.859375 C 4.429688 -2.859375 4.960938 -3.007812 5.328125 -3.3125 C 5.691406 -3.613281 5.875 -4.039062 5.875 -4.59375 C 5.875 -5.164062 5.691406 -5.601562 5.328125 -5.90625 C 4.960938 -6.207031 4.429688 -6.359375 3.734375 -6.359375 L 1.875 -6.359375 L 1.875 -2.859375 Z M 3.734375 -2.859375 "/></g></g></g><g fill="#ffffff" fill-opacity="1"><g transform="translate(287.437407, 199.674961)"><g><path d="M 6.09375 -0.640625 L 6.09375 0 L 1.140625 0 L 1.140625 -7 L 5.9375 -7 L 5.9375 -6.359375 L 1.875 -6.359375 L 1.875 -3.875 L 5.5 -3.875 L 5.5 -3.234375 L 1.875 -3.234375 L 1.875 -0.640625 Z M 6.09375 -0.640625 "/></g></g></g><g fill="#ffffff" fill-opacity="1"><g transform="translate(297.484838, 199.674961)"><g><path d="M 5.921875 0 L 4.3125 -2.25 C 4.132812 -2.226562 3.953125 -2.21875 3.765625 -2.21875 L 1.875 -2.21875 L 1.875 0 L 1.140625 0 L 1.140625 -7 L 3.765625 -7 C 4.648438 -7 5.347656 -6.785156 5.859375 -6.359375 C 6.367188 -5.929688 6.625 -5.34375 6.625 -4.59375 C 6.625 -4.050781 6.484375 -3.59375 6.203125 -3.21875 C 5.929688 -2.84375 5.535156 -2.570312 5.015625 -2.40625 L 6.734375 0 Z M 3.734375 -2.84375 C 4.429688 -2.84375 4.960938 -2.992188 5.328125 -3.296875 C 5.691406 -3.609375 5.875 -4.039062 5.875 -4.59375 C 5.875 -5.164062 5.691406 -5.601562 5.328125 -5.90625 C 4.960938 -6.207031 4.429688 -6.359375 3.734375 -6.359375 L 1.875 -6.359375 L 1.875 -2.84375 Z M 3.734375 -2.84375 "/></g></g></g><g fill="#ffffff" fill-opacity="1"><g transform="translate(308.072053, 199.674961)"><g><path d="M 3.046875 -8.421875 L 3.703125 -8.421875 L 0.40625 1 L -0.25 1 Z M 3.046875 -8.421875 "/></g></g></g><g fill="#ffffff" fill-opacity="1"><g transform="translate(314.780808, 199.674961)"><g><path d="M 5.046875 -3.828125 L 5.046875 -3.171875 L 0.703125 -1.4375 L 0.703125 -2.046875 L 4.375 -3.5 L 0.703125 -4.953125 L 0.703125 -5.578125 Z M 5.046875 -3.828125 "/></g></g></g><path fill="#ffffff" d="M 76.695312 198.875 C 76.636719 198.875 76.578125 198.875 76.523438 198.871094 C 76.480469 198.871094 76.441406 198.867188 76.402344 198.863281 C 76.386719 198.863281 76.371094 198.863281 76.355469 198.859375 C 74.679688 198.695312 73.3125 197.34375 73.167969 195.648438 C 73.167969 195.648438 73.167969 195.648438 73.167969 195.644531 C 73.160156 195.546875 73.152344 195.449219 73.152344 195.347656 C 73.152344 193.402344 74.742188 191.820312 76.695312 191.820312 C 77.046875 191.820312 77.328125 191.539062 77.328125 191.191406 C 77.328125 190.84375 77.046875 190.5625 76.695312 190.5625 C 74.125 190.5625 72.019531 192.585938 71.898438 195.117188 C 69.960938 195.09375 68.394531 193.523438 68.394531 191.589844 C 68.394531 190.867188 68.613281 190.171875 69.027344 189.578125 C 69.132812 189.429688 69.167969 189.246094 69.125 189.070312 C 69.082031 188.894531 68.964844 188.746094 68.804688 188.660156 C 67.640625 188.046875 66.917969 186.851562 66.917969 185.542969 C 66.917969 184.738281 67.1875 183.972656 67.683594 183.351562 C 67.695312 183.339844 67.707031 183.324219 67.714844 183.3125 C 67.722656 183.304688 67.730469 183.296875 67.738281 183.289062 C 67.804688 183.207031 67.875 183.128906 67.953125 183.050781 C 67.953125 183.050781 67.953125 183.050781 67.957031 183.050781 C 68.625 182.382812 69.515625 182.015625 70.460938 182.015625 C 71.140625 182.015625 71.800781 182.207031 72.371094 182.570312 C 73.394531 183.222656 74.003906 184.335938 74.003906 185.542969 C 74.003906 185.890625 74.285156 186.171875 74.632812 186.171875 C 74.984375 186.171875 75.265625 185.890625 75.265625 185.542969 C 75.265625 183.902344 74.4375 182.398438 73.054688 181.511719 C 72.277344 181.019531 71.382812 180.757812 70.460938 180.757812 C 69.421875 180.757812 68.429688 181.082031 67.609375 181.691406 C 67.386719 181.300781 67.269531 180.859375 67.269531 180.40625 C 67.269531 179.183594 68.136719 178.105469 69.335938 177.847656 C 69.5 177.8125 69.648438 177.710938 69.738281 177.566406 C 69.828125 177.421875 69.855469 177.246094 69.8125 177.082031 C 69.742188 176.800781 69.707031 176.515625 69.707031 176.226562 C 69.707031 174.28125 71.296875 172.699219 73.25 172.699219 C 73.410156 172.699219 73.574219 172.710938 73.730469 172.730469 C 73.902344 174.714844 75.574219 176.273438 77.609375 176.273438 C 77.957031 176.273438 78.242188 175.992188 78.242188 175.644531 C 78.242188 175.296875 77.957031 175.015625 77.609375 175.015625 C 76.160156 175.015625 74.980469 173.839844 74.980469 172.394531 C 74.980469 172.375 74.980469 172.355469 74.976562 172.335938 C 74.980469 172.308594 74.984375 172.28125 74.988281 172.253906 C 75.0625 170.863281 76.214844 169.777344 77.609375 169.777344 C 79.058594 169.777344 80.238281 170.953125 80.238281 172.394531 L 80.238281 195.347656 C 80.238281 197.292969 78.648438 198.875 76.695312 198.875 Z M 93.96875 177.566406 C 94.058594 177.710938 94.207031 177.8125 94.371094 177.847656 C 95.570312 178.105469 96.441406 179.183594 96.441406 180.40625 C 96.441406 181.0625 96.191406 181.691406 95.738281 182.179688 C 95.507812 182.429688 95.515625 182.8125 95.753906 183.050781 C 96.421875 183.71875 96.789062 184.601562 96.789062 185.542969 C 96.789062 186.851562 96.066406 188.046875 94.902344 188.660156 C 94.742188 188.746094 94.625 188.894531 94.582031 189.070312 C 94.539062 189.246094 94.574219 189.429688 94.679688 189.578125 C 95.09375 190.171875 95.3125 190.867188 95.3125 191.589844 C 95.3125 193.535156 93.722656 195.117188 91.769531 195.117188 C 91.601562 195.117188 91.429688 195.105469 91.257812 195.082031 C 91.085938 195.054688 90.910156 195.101562 90.773438 195.210938 C 90.640625 195.320312 90.554688 195.476562 90.539062 195.648438 C 90.386719 197.460938 88.835938 198.875 87.011719 198.875 C 85.058594 198.875 83.46875 197.292969 83.46875 195.347656 L 83.46875 172.394531 C 83.46875 170.953125 84.648438 169.777344 86.097656 169.777344 C 87.492188 169.777344 88.644531 170.863281 88.71875 172.253906 C 88.730469 172.441406 88.824219 172.617188 88.980469 172.730469 C 89.136719 172.839844 89.332031 172.875 89.515625 172.824219 C 89.824219 172.742188 90.140625 172.699219 90.457031 172.699219 C 92.410156 172.699219 94 174.28125 94 176.226562 C 94 176.515625 93.964844 176.800781 93.894531 177.082031 C 93.851562 177.246094 93.878906 177.421875 93.96875 177.566406 Z M 91.683594 202.128906 C 91.644531 202.152344 91.605469 202.179688 91.574219 202.207031 C 88.984375 203.855469 88.394531 206.328125 87.871094 208.515625 C 87.507812 210.03125 87.164062 211.464844 86.238281 212.621094 L 84.300781 212.621094 L 84.300781 209.925781 C 84.300781 209.195312 83.980469 208.539062 83.46875 208.09375 L 83.46875 198.578125 C 84.347656 199.535156 85.609375 200.136719 87.011719 200.136719 C 89.273438 200.136719 91.226562 198.527344 91.703125 196.375 C 91.726562 196.375 91.746094 196.375 91.769531 196.375 C 94.417969 196.375 96.574219 194.230469 96.574219 191.589844 C 96.574219 190.832031 96.398438 190.09375 96.054688 189.425781 C 97.300781 188.53125 98.050781 187.097656 98.050781 185.542969 C 98.050781 184.457031 97.691406 183.425781 97.027344 182.585938 C 97.464844 181.945312 97.703125 181.1875 97.703125 180.40625 C 97.703125 178.800781 96.691406 177.367188 95.226562 176.796875 C 95.25 176.605469 95.261719 176.417969 95.261719 176.226562 C 95.261719 173.585938 93.105469 171.441406 90.457031 171.441406 C 90.261719 171.441406 90.070312 171.453125 89.875 171.476562 C 89.460938 169.769531 87.917969 168.519531 86.097656 168.519531 C 83.953125 168.519531 82.207031 170.257812 82.207031 172.394531 L 82.207031 207.511719 C 82.089844 207.492188 81.972656 207.484375 81.855469 207.484375 C 81.734375 207.484375 81.617188 207.492188 81.5 207.511719 L 81.5 172.394531 C 81.5 170.257812 79.753906 168.519531 77.609375 168.519531 C 75.789062 168.519531 74.246094 169.769531 73.832031 171.476562 C 73.636719 171.453125 73.445312 171.441406 73.25 171.441406 C 70.601562 171.441406 68.445312 173.585938 68.445312 176.226562 C 68.445312 176.417969 68.457031 176.605469 68.480469 176.796875 C 67.015625 177.367188 66.003906 178.800781 66.003906 180.40625 C 66.003906 181.1875 66.242188 181.945312 66.679688 182.585938 C 66.660156 182.613281 66.640625 182.640625 66.617188 182.667969 C 66.605469 182.683594 66.59375 182.703125 66.582031 182.71875 C 66.539062 182.777344 66.496094 182.835938 66.457031 182.894531 C 66.457031 182.894531 66.457031 182.894531 66.457031 182.898438 C 66.371094 183.023438 66.292969 183.152344 66.222656 183.285156 C 66.214844 183.296875 66.210938 183.308594 66.203125 183.320312 C 66.175781 183.375 66.148438 183.429688 66.121094 183.484375 C 66.113281 183.5 66.105469 183.511719 66.101562 183.527344 C 66.074219 183.582031 66.050781 183.636719 66.027344 183.691406 C 66.023438 183.703125 66.015625 183.71875 66.011719 183.734375 C 65.984375 183.792969 65.964844 183.851562 65.941406 183.910156 C 65.9375 183.921875 65.933594 183.929688 65.929688 183.941406 C 65.878906 184.082031 65.835938 184.226562 65.800781 184.371094 C 65.796875 184.382812 65.796875 184.390625 65.792969 184.398438 C 65.777344 184.460938 65.765625 184.523438 65.75 184.585938 C 65.746094 184.605469 65.742188 184.625 65.742188 184.644531 C 65.730469 184.699219 65.722656 184.75 65.714844 184.800781 C 65.710938 184.824219 65.707031 184.847656 65.703125 184.875 C 65.695312 184.921875 65.691406 184.972656 65.683594 185.023438 C 65.679688 185.046875 65.679688 185.070312 65.675781 185.097656 C 65.671875 185.148438 65.667969 185.203125 65.664062 185.253906 C 65.664062 185.277344 65.660156 185.296875 65.660156 185.320312 C 65.65625 185.394531 65.65625 185.46875 65.65625 185.542969 C 65.65625 187.097656 66.40625 188.535156 67.652344 189.425781 C 67.308594 190.09375 67.132812 190.832031 67.132812 191.589844 C 67.132812 194.25 69.335938 196.410156 72.003906 196.375 C 72.417969 198.257812 73.945312 199.726562 75.863281 200.0625 C 75.925781 200.074219 75.984375 200.082031 76.046875 200.089844 C 76.066406 200.09375 76.085938 200.09375 76.105469 200.097656 C 76.15625 200.105469 76.203125 200.109375 76.25 200.113281 C 76.289062 200.117188 76.328125 200.121094 76.363281 200.121094 C 76.398438 200.125 76.433594 200.128906 76.46875 200.128906 C 76.542969 200.132812 76.621094 200.136719 76.695312 200.136719 C 78.097656 200.136719 79.359375 199.535156 80.238281 198.578125 L 80.238281 208.09375 C 79.726562 208.539062 79.40625 209.195312 79.40625 209.925781 L 79.40625 212.621094 L 77.484375 212.621094 C 76.558594 211.464844 76.214844 210.03125 75.855469 208.515625 C 75.324219 206.300781 74.722656 203.792969 72.046875 202.144531 C 72.039062 202.140625 72.03125 202.132812 72.023438 202.128906 C 65.671875 198.582031 61.726562 191.878906 61.726562 184.632812 C 61.726562 173.582031 70.757812 164.585938 81.855469 164.585938 C 92.953125 164.585938 101.980469 173.582031 101.980469 184.632812 C 101.980469 191.878906 98.035156 198.582031 91.683594 202.128906 Z M 80.667969 209.925781 C 80.667969 209.273438 81.199219 208.742188 81.855469 208.742188 C 82.507812 208.742188 83.039062 209.273438 83.039062 209.925781 L 83.039062 212.621094 L 80.667969 212.621094 Z M 85.890625 214.613281 L 77.816406 214.613281 L 77.816406 213.878906 L 85.890625 213.878906 Z M 81.855469 163.328125 C 70.058594 163.328125 60.464844 172.886719 60.464844 184.632812 C 60.464844 192.328125 64.652344 199.449219 71.394531 203.21875 C 73.617188 204.59375 74.105469 206.640625 74.625 208.808594 C 75.011719 210.421875 75.410156 212.085938 76.554688 213.472656 L 76.554688 214.761719 C 76.554688 215.375 77.050781 215.871094 77.667969 215.871094 L 86.039062 215.871094 C 86.65625 215.871094 87.152344 215.375 87.152344 214.761719 L 87.152344 213.492188 C 88.308594 212.097656 88.710938 210.425781 89.097656 208.808594 C 89.617188 206.636719 90.109375 204.589844 92.339844 203.214844 C 92.363281 203.199219 92.382812 203.1875 92.402344 203.171875 C 99.089844 199.386719 103.242188 192.292969 103.242188 184.632812 C 103.242188 172.886719 93.648438 163.328125 81.855469 163.328125 " fill-opacity="1" fill-rule="nonzero"/><g clip-path="url(#id1)"><path fill="#ffffff" d="M 83.707031 220.566406 C 83.667969 220.628906 83.601562 220.664062 83.527344 220.664062 L 80.179688 220.664062 C 80.105469 220.664062 80.039062 220.628906 80 220.566406 L 79.703125 220.125 L 84.003906 220.125 Z M 86.523438 218.863281 L 77.183594 218.863281 C 76.835938 218.863281 76.554688 219.148438 76.554688 219.496094 C 76.554688 219.839844 76.835938 220.125 77.183594 220.125 L 78.183594 220.125 L 78.949219 221.265625 C 79.222656 221.675781 79.683594 221.921875 80.179688 221.921875 L 83.527344 221.921875 C 84.023438 221.921875 84.484375 221.675781 84.757812 221.265625 L 85.523438 220.125 L 86.523438 220.125 C 86.871094 220.125 87.152344 219.839844 87.152344 219.496094 C 87.152344 219.148438 86.871094 218.863281 86.523438 218.863281 " fill-opacity="1" fill-rule="nonzero"/></g><path fill="#ffffff" d="M 86.523438 216.738281 L 77.183594 216.738281 C 76.835938 216.738281 76.554688 217.019531 76.554688 217.367188 C 76.554688 217.714844 76.835938 217.996094 77.183594 217.996094 L 86.523438 217.996094 C 86.871094 217.996094 87.152344 217.714844 87.152344 217.367188 C 87.152344 217.019531 86.871094 216.738281 86.523438 216.738281 " fill-opacity="1" fill-rule="nonzero"/><path fill="#ffffff" d="M 86.425781 193.324219 C 86.070312 193.324219 85.785156 193.039062 85.785156 192.6875 C 85.785156 192.335938 86.070312 192.046875 86.425781 192.046875 C 86.777344 192.046875 87.066406 192.335938 87.066406 192.6875 C 87.066406 193.039062 86.777344 193.324219 86.425781 193.324219 Z M 87.054688 190.898438 L 87.054688 187.796875 C 87.054688 187.449219 86.773438 187.167969 86.425781 187.167969 C 86.074219 187.167969 85.792969 187.449219 85.792969 187.796875 L 85.792969 190.898438 C 85.050781 191.160156 84.519531 191.863281 84.519531 192.6875 C 84.519531 193.730469 85.375 194.582031 86.425781 194.582031 C 87.472656 194.582031 88.328125 193.730469 88.328125 192.6875 C 88.328125 191.863281 87.796875 191.160156 87.054688 190.898438 " fill-opacity="1" fill-rule="nonzero"/><path fill="#ffffff" d="M 91.453125 184.101562 C 91.097656 184.101562 90.8125 183.816406 90.8125 183.464844 C 90.8125 183.113281 91.097656 182.824219 91.453125 182.824219 C 91.804688 182.824219 92.09375 183.113281 92.09375 183.464844 C 92.09375 183.816406 91.804688 184.101562 91.453125 184.101562 Z M 86.425781 174.648438 C 86.777344 174.648438 87.066406 174.933594 87.066406 175.289062 C 87.066406 175.417969 87.023438 175.539062 86.957031 175.640625 C 86.953125 175.644531 86.949219 175.648438 86.949219 175.652344 C 86.832031 175.816406 86.640625 175.925781 86.425781 175.925781 C 86.070312 175.925781 85.785156 175.640625 85.785156 175.289062 C 85.785156 174.933594 86.070312 174.648438 86.425781 174.648438 Z M 91.453125 181.566406 C 91.378906 181.566406 91.308594 181.574219 91.234375 181.582031 L 88.171875 176.035156 C 88.273438 175.804688 88.328125 175.554688 88.328125 175.289062 C 88.328125 174.242188 87.472656 173.390625 86.425781 173.390625 C 85.375 173.390625 84.519531 174.242188 84.519531 175.289062 C 84.519531 176.113281 85.050781 176.8125 85.792969 177.074219 L 85.792969 184.328125 C 85.792969 184.675781 86.074219 184.957031 86.425781 184.957031 C 86.773438 184.957031 87.054688 184.675781 87.054688 184.328125 L 87.054688 177.074219 C 87.125 177.050781 87.191406 177.023438 87.257812 176.988281 L 90.097656 182.132812 C 89.757812 182.476562 89.546875 182.945312 89.546875 183.464844 C 89.546875 184.507812 90.402344 185.359375 91.453125 185.359375 C 92.503906 185.359375 93.355469 184.507812 93.355469 183.464844 C 93.355469 182.417969 92.503906 181.566406 91.453125 181.566406 " fill-opacity="1" fill-rule="nonzero"/><g clip-path="url(#id2)"><path fill="#ffffff" d="M 81.855469 159.226562 C 82.203125 159.226562 82.484375 158.945312 82.484375 158.597656 L 82.484375 154.414062 C 82.484375 154.066406 82.203125 153.785156 81.855469 153.785156 C 81.503906 153.785156 81.222656 154.066406 81.222656 154.414062 L 81.222656 158.597656 C 81.222656 158.945312 81.503906 159.226562 81.855469 159.226562 " fill-opacity="1" fill-rule="nonzero"/></g><path fill="#ffffff" d="M 63.082031 166.605469 C 63.203125 166.726562 63.367188 166.789062 63.527344 166.789062 C 63.691406 166.789062 63.851562 166.726562 63.976562 166.605469 C 64.222656 166.359375 64.222656 165.960938 63.976562 165.714844 L 61.003906 162.753906 C 60.757812 162.507812 60.355469 162.507812 60.109375 162.753906 C 59.863281 163 59.863281 163.398438 60.109375 163.644531 L 63.082031 166.605469 " fill-opacity="1" fill-rule="nonzero"/><g clip-path="url(#id3)"><path fill="#ffffff" d="M 55.9375 183.785156 L 51.734375 183.785156 C 51.386719 183.785156 51.105469 184.066406 51.105469 184.414062 C 51.105469 184.761719 51.386719 185.042969 51.734375 185.042969 L 55.9375 185.042969 C 56.285156 185.042969 56.570312 184.761719 56.570312 184.414062 C 56.570312 184.066406 56.285156 183.785156 55.9375 183.785156 " fill-opacity="1" fill-rule="nonzero"/></g><path fill="#ffffff" d="M 63.082031 202.21875 L 60.109375 205.179688 C 59.863281 205.425781 59.863281 205.824219 60.109375 206.070312 C 60.234375 206.191406 60.394531 206.253906 60.554688 206.253906 C 60.71875 206.253906 60.878906 206.191406 61.003906 206.070312 L 63.976562 203.109375 C 64.222656 202.863281 64.222656 202.464844 63.976562 202.21875 C 63.726562 201.976562 63.328125 201.976562 63.082031 202.21875 " fill-opacity="1" fill-rule="nonzero"/><path fill="#ffffff" d="M 100.625 202.21875 C 100.378906 201.976562 99.980469 201.976562 99.730469 202.21875 C 99.484375 202.464844 99.484375 202.863281 99.730469 203.109375 L 102.703125 206.070312 C 102.828125 206.191406 102.988281 206.253906 103.152344 206.253906 C 103.3125 206.253906 103.472656 206.191406 103.597656 206.070312 C 103.84375 205.824219 103.84375 205.425781 103.597656 205.179688 L 100.625 202.21875 " fill-opacity="1" fill-rule="nonzero"/><g clip-path="url(#id4)"><path fill="#ffffff" d="M 111.972656 183.785156 L 107.769531 183.785156 C 107.421875 183.785156 107.136719 184.066406 107.136719 184.414062 C 107.136719 184.761719 107.421875 185.042969 107.769531 185.042969 L 111.972656 185.042969 C 112.320312 185.042969 112.605469 184.761719 112.605469 184.414062 C 112.605469 184.066406 112.320312 183.785156 111.972656 183.785156 " fill-opacity="1" fill-rule="nonzero"/></g><path fill="#ffffff" d="M 102.703125 162.753906 L 99.730469 165.714844 C 99.484375 165.960938 99.484375 166.359375 99.730469 166.605469 C 99.855469 166.726562 100.015625 166.789062 100.179688 166.789062 C 100.339844 166.789062 100.503906 166.726562 100.625 166.605469 L 103.597656 163.644531 C 103.84375 163.398438 103.84375 163 103.597656 162.753906 C 103.351562 162.507812 102.949219 162.507812 102.703125 162.753906 " fill-opacity="1" fill-rule="nonzero"/></svg>