<?xml version="1.0" encoding="utf-8"?>
<!-- Generator: Adobe Illustrator 26.3.1, SVG Export Plug-In . SVG Version: 6.00 Build 0)  -->
<svg version="1.1" id="Warstwa_1" xmlns="http://www.w3.org/2000/svg" xmlns:xlink="http://www.w3.org/1999/xlink" x="0px" y="0px"
	 viewBox="0 0 430 430" style="enable-background:new 0 0 430 430;" xml:space="preserve">
<style type="text/css">
	.Styl_x0020_grafiki_x0020_212{opacity:0.5;fill:#4bb3fd;}
	.Styl_x0020_grafiki_x0020_213{fill:#4bb3fd;}
	.Styl_x0020_grafiki_x0020_214{fill:#4bb3fd;}
	.Styl_x0020_grafiki_x0020_215{fill:#ebe6ef;}
	.st0{fill:#646E78;}
	.st1{fill:none;stroke:#646E78;stroke-width:7;stroke-linecap:round;stroke-linejoin:round;stroke-miterlimit:10;}
	.st2{fill:#ebe6ef;}
	.st3{fill:#121331;}
	.st4{fill:#3A3347;}
	.st5{fill:#92140C;}
	.st6{fill:#F24C00;}
	.st7{opacity:0.5;fill:#F24C00;}
	.st8{opacity:0.5;fill:#ebe6ef;}
	.st9{fill:#FFC738;}
	.st10{opacity:0.5;fill:#FFC738;}
	.st11{fill:#121331;stroke:#ebe6ef;stroke-width:7;stroke-linecap:round;stroke-linejoin:round;stroke-miterlimit:10;}
	.st12{fill:#4bb3fd;}
	.st13{opacity:0.5;fill:#4bb3fd;}
	.st14{fill:none;stroke:#121331;stroke-width:7;stroke-linecap:round;stroke-linejoin:round;stroke-miterlimit:10;}
	.st15{opacity:0.5;}
	.st16{fill:#121331;stroke:#4bb3fd;stroke-width:30;stroke-linecap:round;stroke-linejoin:round;stroke-miterlimit:10;}
	.st17{fill:none;stroke:#121331;stroke-width:12;stroke-linecap:round;stroke-linejoin:round;}
	.st18{fill:#2CA58D;}
	.st19{fill:none;stroke:#08A88A;stroke-width:12;stroke-linecap:round;stroke-linejoin:round;stroke-miterlimit:10;}
	.st20{opacity:0.5;fill:#2CA58D;}
	.st21{opacity:0.5;fill:#646E78;}
	.st22{fill:none;stroke:#FFC738;stroke-width:7;stroke-linecap:round;stroke-linejoin:round;stroke-miterlimit:10;}
	.st23{fill:#3A3347;stroke:#121331;stroke-width:7;stroke-linecap:round;stroke-linejoin:round;stroke-miterlimit:10;}
	.st24{opacity:0.5;fill:#3A3347;}
	.st25{fill:url(#SVGID_1_);}
	.st26{fill:url(#SVGID_00000132775646623201349960000010810863453668849564_);}
	.st27{fill:url(#SVGID_00000088841514007434360540000001706424645440781186_);}
	.st28{fill:#B26836;}
	.st29{opacity:0.5;fill:#92140C;}
	.st30{fill:#F28BA8;}
	.st31{fill:none;stroke:#ebe6ef;stroke-width:7;stroke-linecap:round;stroke-linejoin:round;stroke-miterlimit:10;}
	.st32{opacity:0.5;fill:#B26836;}
	.st33{fill:#08A789;}
	.st34{fill:#FFFFFF;}
	.st35{fill:none;stroke:#B26836;stroke-width:7;stroke-linecap:round;stroke-linejoin:round;stroke-miterlimit:10;}
	.st36{opacity:0.99;fill:#ebe6ef;}
	.st37{fill:#F9C9C0;}
	.st38{opacity:0.5;fill:#F9C9C0;}
	.st39{opacity:0.5;fill:#F28BA8;}
	.st40{fill:none;stroke:#08A284;stroke-width:12;stroke-linecap:round;stroke-linejoin:round;stroke-miterlimit:10;}
	.st41{fill:none;stroke:#92140C;stroke-width:7;stroke-linecap:round;stroke-linejoin:round;stroke-miterlimit:10;}
	.st42{fill:none;stroke:#08A688;stroke-width:12;stroke-linecap:round;stroke-linejoin:round;stroke-miterlimit:10;}
	.st43{opacity:0.96;fill:#ebe6ef;}
	.st44{fill:none;stroke:#121331;stroke-width:12;stroke-linecap:round;stroke-linejoin:round;stroke-miterlimit:10;}
	.st45{fill:#08A88A;}
	.st46{fill:none;stroke:#2CA58D;stroke-width:7;stroke-linecap:round;stroke-linejoin:round;stroke-miterlimit:10;}
	.st47{fill:#121331;stroke:#FFC738;stroke-width:7;stroke-linecap:round;stroke-linejoin:round;stroke-miterlimit:10;}
	.st48{fill:#121331;stroke:#92140C;stroke-width:7;stroke-linejoin:round;stroke-miterlimit:10;}
	.st49{fill:none;stroke:#92140C;stroke-width:7;stroke-linejoin:round;stroke-miterlimit:10;}
	.st50{opacity:0.75;fill:#ebe6ef;}
	.st51{fill:#121331;stroke:#646E78;stroke-width:12;stroke-linecap:round;stroke-linejoin:round;stroke-miterlimit:10;}
	.st52{fill:#E94E12;}
	.st53{fill:#E84F16;}
	.st54{opacity:0.5;fill:#FFFFFF;}
</style>
<path class="Styl_x0020_grafiki_x0020_213" d="M342.17,215.27l31.49,21.58c-2.59,19.4-8.69,37.7-17.59,54.25l-38.2-1.07L330.66,326
	c-13.15,13.76-28.74,25.16-46.07,33.53l-30.29-23.31l-10.81,36.65c-9.24,1.68-18.77,2.53-28.5,2.53s-19.25-0.86-28.5-2.53
	l-10.81-36.65l-30.29,23.31c-17.33-8.37-32.92-19.77-46.07-33.53l12.79-35.97l-38.2,1.07c-8.9-16.54-15-34.84-17.59-54.25
	l31.49-21.58L56.34,193.7c2.59-19.4,8.67-37.68,17.57-54.23l38.22,1.07l-12.81-35.99c13.17-13.74,28.78-25.14,46.11-33.53
	l30.27,23.31l10.79-36.63c9.24-1.66,18.77-2.54,28.51-2.54s19.27,0.88,28.51,2.54l10.79,36.63l30.27-23.31
	c17.33,8.39,32.94,19.79,46.11,33.53l-12.81,35.99l38.22-1.07c8.9,16.54,14.98,34.82,17.57,54.23L342.17,215.27z"/>
<circle class="Styl_x0020_grafiki_x0020_215" cx="215" cy="215" r="91.16"/>
<path class="st12" d="M232.58,220.29h-15.35c-1.93,0-3.5-1.57-3.5-3.5s1.57-3.5,3.5-3.5h15.35c2.69,0,5.21-0.94,7.11-2.66
	c1.8-1.63,2.79-3.75,2.79-5.97c0-4.76-4.44-8.63-9.9-8.63h-15.35c-1.93,0-3.5-1.57-3.5-3.5s1.57-3.5,3.5-3.5h15.35
	c9.32,0,16.9,7.01,16.9,15.63c0,4.22-1.81,8.18-5.09,11.16C241.2,218.7,237.01,220.29,232.58,220.29z"/>
<path class="st12" d="M217.23,241.29c-1.93,0-3.5-1.57-3.5-3.5v-45.26c0-1.93,1.57-3.5,3.5-3.5s3.5,1.57,3.5,3.5v45.26
	C220.73,239.72,219.16,241.29,217.23,241.29z"/>
<path class="st12" d="M198.5,241.29c-1.37,0-2.67-0.81-3.23-2.16l-15.8-38.05l-16.92,38.13c-0.78,1.77-2.85,2.56-4.62,1.78
	c-1.77-0.78-2.56-2.85-1.78-4.62l20.23-45.58c0.56-1.27,1.82-2.08,3.2-2.08c0.01,0,0.03,0,0.04,0c1.4,0.02,2.65,0.86,3.19,2.16
	l18.93,45.58c0.74,1.79-0.1,3.83-1.89,4.57C199.4,241.2,198.95,241.29,198.5,241.29z"/>
<path class="st12" d="M193.84,230.07h-29.52c-1.93,0-3.5-1.57-3.5-3.5s1.57-3.5,3.5-3.5h29.52c1.93,0,3.5,1.57,3.5,3.5
	S195.77,230.07,193.84,230.07z"/>
<path class="st12" d="M266.66,241.29c-1.93,0-3.5-1.57-3.5-3.5v-45.26c0-1.93,1.57-3.5,3.5-3.5s3.5,1.57,3.5,3.5v45.26
	C270.16,239.72,268.59,241.29,266.66,241.29z"/>
<g class="st15">
	<g>
		<path class="st12" d="M335.86,140.42l19.83-0.55c-0.45-0.23-0.95-0.35-1.46-0.34l-19.83,0.55
			C334.82,140.3,335.32,140.43,335.86,140.42z"/>
	</g>
	<g>
		<path class="Styl_x0020_grafiki_x0020_214" d="M335.86,140.42l19.83-0.55c-0.45-0.23-0.95-0.35-1.46-0.34l-19.83,0.55
			C334.82,140.3,335.32,140.43,335.86,140.42z"/>
	</g>
</g>
<path class="st3" d="M215,309.66c-52.2,0-94.66-42.47-94.66-94.66c0-52.2,42.46-94.66,94.66-94.66s94.66,42.47,94.66,94.66
	C309.66,267.2,267.2,309.66,215,309.66z M215,127.34c-48.34,0-87.66,39.33-87.66,87.66c0,48.34,39.33,87.66,87.66,87.66
	s87.66-39.33,87.66-87.66C302.66,166.66,263.34,127.34,215,127.34z"/>
<path class="Styl_x0020_grafiki_x0020_212" d="M70.07,236.85l31.49-21.58L70.07,193.7c2.57-19.26,8.58-37.4,17.38-53.85l-13.53-0.38
	c-8.9,16.54-14.98,34.82-17.57,54.23l31.49,21.58l-31.49,21.58c2.59,19.4,8.69,37.7,17.59,54.25l13.53-0.38
	C78.67,274.27,72.64,256.11,70.07,236.85z"/>
<path class="Styl_x0020_grafiki_x0020_212" d="M186.89,102.95l13.33-45.25c7.06-1.27,14.29-2.07,21.65-2.39
	c-2.28-0.1-4.56-0.15-6.87-0.15c-9.74,0-19.27,0.88-28.51,2.54L175.7,94.33L186.89,102.95z"/>
<path class="Styl_x0020_grafiki_x0020_213" d="M331.6,140.54l24.68-0.69c-0.07-0.13-0.13-0.25-0.2-0.38l-24.35,0.68L331.6,140.54z"
	/>
<path class="Styl_x0020_grafiki_x0020_212" d="M256.84,102.95l35.92-27.66c-2.69-1.5-5.41-2.93-8.19-4.27L254.3,94.33L256.84,102.95
	z"/>
<path class="Styl_x0020_grafiki_x0020_212" d="M125.86,140.54l-12.81-35.99c11.06-11.54,23.85-21.42,37.92-29.26l-5.54-4.27
	c-17.33,8.39-32.94,19.79-46.11,33.53l12.67,35.6L125.86,140.54z"/>
<path class="Styl_x0020_grafiki_x0020_213" d="M331.6,290.03l0.14,0.39l24.33,0.68c0.07-0.13,0.13-0.25,0.2-0.38L331.6,290.03z"/>
<path class="Styl_x0020_grafiki_x0020_213" d="M268.03,336.21l-2.54,8.61l19.1,14.7c2.78-1.34,5.51-2.77,8.19-4.26L268.03,336.21z"
	/>
<path class="Styl_x0020_grafiki_x0020_212" d="M113.07,326l12.79-35.97l-13.87,0.39L99.34,326c13.15,13.76,28.74,25.16,46.07,33.53
	l5.54-4.26C136.88,347.43,124.11,337.55,113.07,326z"/>
<path class="Styl_x0020_grafiki_x0020_212" d="M200.24,372.87l-13.35-45.27l-11.19,8.61l10.81,36.65c9.24,1.68,18.77,2.53,28.5,2.53
	c2.3,0,4.59-0.05,6.87-0.15C214.52,374.95,207.29,374.15,200.24,372.87z"/>
<path class="st3" d="M215,378.9c-9.85,0-19.64-0.87-29.12-2.59c-1.3-0.24-2.36-1.19-2.73-2.45l-9.36-31.75l-26.24,20.2
	c-1.05,0.81-2.46,0.95-3.66,0.38c-17.67-8.53-33.51-20.06-47.08-34.26c-0.91-0.96-1.21-2.34-0.77-3.59l11.08-31.15l-33.09,0.92
	c-1.33,0.05-2.55-0.68-3.18-1.84c-9.33-17.35-15.38-36-17.98-55.44c-0.17-1.31,0.4-2.6,1.49-3.35l27.28-18.69l-27.28-18.69
	c-1.09-0.75-1.67-2.04-1.49-3.35c2.6-19.45,8.64-38.1,17.96-55.42c0.63-1.16,1.82-1.87,3.18-1.84l33.11,0.92l-11.09-31.17
	c-0.44-1.25-0.15-2.64,0.77-3.6c13.58-14.17,29.43-25.7,47.11-34.26c1.19-0.58,2.61-0.43,3.66,0.38l26.22,20.19l9.34-31.73
	c0.37-1.27,1.43-2.22,2.74-2.46c19.16-3.44,39.11-3.44,58.27,0c1.3,0.23,2.37,1.18,2.74,2.46l9.34,31.73l26.22-20.19
	c1.05-0.81,2.47-0.95,3.66-0.38c17.68,8.56,33.53,20.08,47.11,34.26c0.92,0.96,1.21,2.35,0.77,3.6l-11.09,31.17l33.11-0.92
	c0.03,0,0.07,0,0.1,0c1.29,0,2.47,0.71,3.08,1.84c9.32,17.32,15.36,35.97,17.96,55.42c0.17,1.31-0.4,2.6-1.49,3.35l-27.28,18.69
	l27.28,18.69c1.09,0.75,1.67,2.04,1.49,3.35c-2.6,19.44-8.65,38.09-17.98,55.44c-0.63,1.17-1.83,1.89-3.18,1.84l-33.09-0.92
	l11.08,31.15c0.44,1.25,0.15,2.64-0.77,3.59c-13.57,14.2-29.41,25.73-47.08,34.26c-1.19,0.57-2.61,0.43-3.66-0.38l-26.24-20.2
	l-9.36,31.75c-0.37,1.27-1.43,2.22-2.73,2.45C234.64,378.03,224.85,378.9,215,378.9z M189.25,369.79c16.81,2.8,34.7,2.8,51.51,0
	l10.19-34.57c0.33-1.11,1.18-1.98,2.28-2.34c1.09-0.36,2.3-0.15,3.22,0.56L285,355.42c15.49-7.75,29.48-17.93,41.63-30.3
	l-12.06-33.92c-0.39-1.09-0.21-2.3,0.47-3.23c0.68-0.93,1.77-1.48,2.93-1.44l36.02,1.01c8.03-15.42,13.37-31.9,15.9-49.03
	l-29.7-20.35c-0.95-0.65-1.52-1.73-1.52-2.89s0.57-2.23,1.52-2.89l29.7-20.35c-2.53-17.14-7.87-33.61-15.88-49.01l-36.04,1.01
	c-1.15,0.04-2.25-0.51-2.93-1.44c-0.68-0.93-0.85-2.14-0.47-3.23l12.08-33.94c-12.16-12.35-26.17-22.54-41.67-30.3l-28.54,21.98
	c-0.91,0.7-2.12,0.91-3.22,0.56c-1.1-0.36-1.95-1.23-2.28-2.34l-10.17-34.54c-16.99-2.81-34.56-2.81-51.54,0l-10.17,34.54
	c-0.33,1.11-1.18,1.98-2.28,2.34c-1.1,0.36-2.3,0.15-3.22-0.56l-28.54-21.98c-15.5,7.77-29.51,17.95-41.67,30.3l12.08,33.94
	c0.39,1.09,0.21,2.3-0.47,3.23c-0.68,0.93-1.77,1.48-2.93,1.44l-36.04-1.01c-8.02,15.4-13.35,31.87-15.88,49.01l29.7,20.35
	c0.95,0.65,1.52,1.73,1.52,2.89s-0.57,2.23-1.52,2.89l-29.7,20.35c2.53,17.13,7.87,33.6,15.9,49.03l36.02-1.01
	c1.16-0.03,2.25,0.51,2.93,1.44c0.68,0.93,0.85,2.14,0.47,3.23l-12.06,33.92c12.15,12.38,26.14,22.56,41.63,30.3l28.56-21.98
	c0.92-0.7,2.12-0.91,3.22-0.56c1.1,0.36,1.95,1.23,2.28,2.34L189.25,369.79z"/>
</svg>
